<?xml version="1.0" encoding="utf-8"?>
<svg viewBox="0 0 500 500" xmlns="http://www.w3.org/2000/svg">
  <path opacity="1.000000" stroke="none" d="M 114.049 105.954 C 117.079 106.798 214.284 220.024 219.014 225.716 C 213.392 231.492 208.042 236.99 202.125 243.067 C 158.539 212.933 115.328 183.058 71.105 152.48 C 85.587 136.778 99.581 121.604 114.049 105.954 Z" style="fill: rgb(153, 255, 153);"/>
  <path opacity="1.000000" stroke="none" d="M 65.12 262.905 C 75.894 264.371 157.637 275.326 187.236 279.285 C 187.819 289.032 188.353 298.018 188.959 308.112 C 147.931 314.052 106.917 319.988 65.12 326.037 C 65.12 304.951 65.12 284.608 65.12 262.905 Z" style="fill: rgb(153, 255, 153);"/>
  <path opacity="1.000000" stroke="none" d="M 302.603 101.675 C 300.314 120.816 291.59 194.396 289.59 211.731 C 278.09 211.085 267.802 210.502 256.236 209.852 C 250.656 174.082 245.07 138.284 239.36 101.675 C 260.495 101.675 281.057 101.675 302.603 101.675 Z" style="fill: rgb(153, 255, 153);"/>
  <path opacity="1.000000" stroke="none" d="M 101.456 355.23 C 132.077 343.286 161.983 331.595 192.39 319.705 C 194.139 322.315 195.69 324.635 198.123 328.271 C 151.017 351.962 104.536 375.338 57.144 399.174 C 53.428 391.799 50.005 385.001 45.974 376.993 C 64.746 369.618 82.743 362.55 101.456 355.23 Z" style="fill: rgb(153, 255, 153);"/>
  <path opacity="1.000000" stroke="none" d="M 49.883 195.821 C 90.875 213.457 186.367 254.575 194.141 257.973 C 193.175 261.125 192.293 263.985 191.186 267.588 C 141.187 250.881 92.04 234.459 41.824 217.684 C 44.554 210.278 47.071 203.45 49.883 195.821 Z" style="fill: rgb(153, 255, 153);"/>
  <path opacity="1.000000" stroke="none" d="M 332.153 244.428 C 332.468 241.575 392.056 142.504 393.165 141.019 C 398.73 143.955 404.072 146.769 410.497 150.158 C 399.569 164.761 389.079 178.711 378.663 192.711 C 366.428 209.151 354.312 225.677 342.019 242.067 C 339.737 245.111 337.705 250.534 332.153 244.428 Z" style="fill: rgb(153, 255, 153);"/>
  <path opacity="1.000000" stroke="none" d="M 232.806 194.948 C 235.774 201.506 240.65 215.067 240.348 215.999 C 237.321 215.171 232.64 215.316 231.507 213.384 C 212.315 180.634 193.565 147.624 174.285 113.926 C 179.745 110.293 184.796 106.93 190.978 102.816 C 205.036 133.714 218.807 163.977 232.806 194.948 Z" style="fill: rgb(153, 255, 153);"/>
  <path opacity="1.000000" stroke="none" d="M 304.542 212.026 C 312.585 191.816 320.336 172.278 328.312 152.162 C 335.348 155.038 341.527 157.561 348.935 160.584 C 336.941 181.667 325.317 202.102 313.25 223.318 C 309.088 220.174 301.179 221.585 304.542 212.026 Z" style="fill: rgb(153, 255, 153);"/>
  <text style="fill: rgb(23, 23, 23); font-family: Arial, sans-serif; font-size: 123px; letter-spacing: 20px; text-anchor: middle; text-transform: capitalize; white-space: pre;" x="339.995" y="353.456">LPI</text>
</svg>