<svg id="Layer_1" data-name="Layer 1" xmlns="http://www.w3.org/2000/svg" viewBox="0 0 512 512"><defs><style>.cls-1{fill:#5ee35e;}</style></defs><title>notepad-2-glyph</title><path class="cls-1" d="M396.8,25.6h0V12.8a12.8,12.8,0,0,0-25.6,0V25.6H332.8V12.8a12.8,12.8,0,0,0-25.6,0V25.6H268.8V12.8a12.8,12.8,0,0,0-25.6,0V25.6H204.8V12.8a12.8,12.8,0,0,0-25.6,0V25.6H140.8V12.8a12.8,12.8,0,0,0-25.6,0V25.6h0a64,64,0,0,0-64,64V448a64,64,0,0,0,64,64H307.34L460.8,358.4V89.6A64,64,0,0,0,396.8,25.6Zm-230.4,128H345.22a12.8,12.8,0,0,1,0,25.6H166.4a12.8,12.8,0,0,1,0-25.6Zm0,51.2H345.6a12.8,12.8,0,0,1,0,25.6H166.4a12.8,12.8,0,0,1,0-25.6Zm102.4,76.8H166.4a12.8,12.8,0,0,1,0-25.6H268.8a12.8,12.8,0,0,1,0,25.6Zm25.6,204.8V409.6a64,64,0,0,1,64-64h76.8Z"/></svg>